<?xml version="1.0" encoding="UTF-8" ?>
<!DOCTYPE svg PUBLIC "-//W3C//DTD SVG 1.1//EN" "http://www.w3.org/Graphics/SVG/1.1/DTD/svg11.dtd">
<svg width="960pt" height="450pt" viewBox="0 0 960 450" version="1.1" xmlns="http://www.w3.org/2000/svg">
<linearGradient xmlns="http://www.w3.org/2000/svg" gradientUnits="userSpaceOnUse" id="SVGID_2_"><stop offset="0" style="stop-color:#c341ff;"/><stop offset="1" style="stop-color:#a04ffd"/></linearGradient>

    <path fill="#a64cfd" opacity="1.00" d=" M 0.00 0.00 L 0.02 0.00 C 0.02 0.03 0.01 0.09 0.00 0.12 L 0.00 0.00 Z" />
    <path d=" M 48.26 176.17 C 62.23 166.74 78.09 159.38 95.04 157.78 C 107.54 156.73 120.57 159.65 130.73 167.21 C 135.08 170.15 138.33 174.33 142.05 177.96 C 146.26 181.90 148.96 187.06 152.47 191.58 C 160.59 202.59 169.14 214.11 181.61 220.49 C 194.69 227.59 210.10 227.73 224.56 226.37 C 243.09 223.78 261.21 218.77 279.81 216.63 C 292.81 215.14 306.29 215.73 318.71 220.16 C 327.22 223.82 335.43 228.44 342.21 234.84 C 349.76 242.02 356.55 250.06 362.17 258.84 C 380.28 287.34 387.74 320.93 403.74 350.48 C 412.67 367.02 425.64 381.31 441.30 391.72 C 452.17 399.22 463.76 405.65 474.15 413.84 C 481.77 420.23 488.68 427.75 493.08 436.74 C 495.28 441.04 499.57 444.64 498.43 450.00 L 0.00 450.00 L 0.00 218.15 C 0.16 216.14 0.30 214.12 0.44 212.10 L 1.37 212.68 C 2.75 210.35 4.26 208.02 6.47 206.38 C 20.29 196.16 34.07 185.87 48.26 176.17 Z" fill="url(#SVGID_2_)"/>

</svg>
