<svg width="960pt" height="450pt" viewBox="0 0 960 450" version="1.1" xmlns="http://www.w3.org/2000/svg">
<linearGradient xmlns="http://www.w3.org/2000/svg" gradientUnits="userSpaceOnUse" id="SVGID_2_"><stop offset="0" style="stop-color:#9453fc;"/><stop offset="1" style="stop-color:#805cfb"/></linearGradient>
<path xmlns="http://www.w3.org/2000/svg" d=" M 626.56 0.00 L 960.00 0.00 L 960.00 404.54 C 957.24 407.12 953.48 408.00 950.10 409.45 C 943.74 412.43 936.92 414.60 929.93 415.37 C 922.00 415.60 913.65 415.09 906.51 411.33 C 902.13 408.52 898.11 405.18 894.28 401.68 C 889.94 397.83 887.04 392.72 884.07 387.82 C 874.21 369.23 872.51 347.91 867.03 327.91 C 863.24 312.86 856.17 298.16 844.47 287.67 C 830.69 276.70 813.08 273.26 796.95 267.22 C 785.59 263.51 774.83 257.12 767.24 247.75 C 757.18 236.16 752.68 221.01 750.27 206.13 C 747.93 191.20 748.32 176.05 747.53 161.00 C 747.27 143.16 744.74 124.81 736.16 108.92 C 731.72 100.42 725.10 93.13 717.43 87.45 C 699.54 76.00 677.31 78.19 657.88 71.26 C 648.88 68.04 641.57 61.59 635.48 54.41 C 624.72 38.70 622.22 18.27 626.56 0.00 Z" fill="url(#SVGID_2_)"/>




</svg>